<?xml version="1.0" encoding="utf-8"?>
<!-- Generator: Adobe Illustrator 27.9.0, SVG Export Plug-In . SVG Version: 6.00 Build 0)  -->
<svg version="1.1" xmlns="http://www.w3.org/2000/svg" xmlns:xlink="http://www.w3.org/1999/xlink" x="0px" y="0px"
	 viewBox="0 0 521 521" style="enable-background:new 0 0 521 521;" xml:space="preserve">
<style type="text/css">
	.st0{fill:#FFFFFF;stroke:#000000;stroke-miterlimit:10;}
	.st1{fill:#03EB26;}
</style>
<g id="Layer_2">
</g>
<g id="Layer_1">
	<g>
		<circle class="st0" cx="260.5" cy="260.5" r="260"/>
		<g>
			<path class="st1" d="M356.6,147.7c0.7,2,1.3,4.1,2.1,6.1c0.8,2.1,0.8,4.1-1,5.6c-1.8,1.4-3.5,2.3-5.7,0.7c-1.4-1-3-1.6-4.7-2.5
				c-0.3,3-1.5,5.2-4.5,5.8c-0.4,0.1-0.8,2-0.5,2.8c1.1,2.3,0.3,3.8-1.3,5.4c-1.4,1.4-2.6,2.9-3.9,4.4c-1.9-1-3.8-2-5.9-3
				c-0.7,3.8-1.3,7.4-1.9,11.6c-4.3-3.3-5.9-0.1-8.2,2.7c-2.5,3-2.5,5.9-0.5,9.6c-2.3-0.6-3.9-1.1-5.6-1.5c-0.5,1.3-1,2.5-1.5,3.8
				c-1.4,0-2.7,0-4.4,0c0.2,2.6,0.4,5.2,0.7,7.6c-0.2,0.1-0.4,0.4-0.5,0.4c-3.5-1.3-4.8,0.8-5.9,3.7c-0.9,2.3-2.2,4.4-3.4,6.9
				c-1.8-0.4-3.6-0.9-5.8-1.4c-0.5,2.2-0.9,4.3-1.4,6.6c-3-0.1-6.5-2.6-8.6,1.4c-1.8,3.4-5.3,6.6-0.9,11.5c-3-0.6-5.1-1.1-7.8-1.7
				c1.3,5.6,0.7,10-5.9,10.8c-1.1-2.9-2.2-6.3-3.6-9.6c-0.4-0.9-1.3-1.9-2.2-2c-3.9-0.7-7.8-1.1-11.3-1.5c-1.6-3.2-2.9-6-4.4-8.6
				c-1.3-2-3-3.7-4.5-5.6c0.2-0.3,0.3-0.6,0.5-0.9c-1.8,0.6-3.6,1.3-5.8,2c0.4-2.8,0.8-5.3,1.3-8.6c-4.1,2.5-9.6,0.6-11.8,6.5
				c-1.5-0.7-2.9-1.4-4.2-2c-6.5,4.9-6.5,4.9-4,12.5c-3.3-0.6-6.4-1.1-9.7-1.6c0.4,2,0.8,3.7,1.2,5.4c-5,0.2-7.3,3.3-6.4,8.6
				c-0.2,0.1-0.4,0.3-0.5,0.2c-4.4-2.2-7-0.1-9,3.8c-1.6,3.4-4.5,6-5.1,10c-0.5,3.2-3.4,1.5-5.6,1.8c0,2.4,0,4.8,0,7.8
				c-3.6-1.1-6.8-2.1-10.3-3.2c0,2.3,0,4.3,0,5.5c-3.2,2.5-5.8,4.6-8.5,6.8c0.9,2,1.9,4.2,3,6.7c-2.4-0.3-4.5-0.3-6.5-0.9
				c-2.4-0.7-4.1-0.1-5.3,2.1c-0.6,1.2-1.5,2.2-2.3,3.2c-2.2,3-5.3,5.8-1.8,9.9c-1,0.5-1.6,0.9-2.2,1.1c-4.8,1.7-8.9,4.2-10.5,9.6
				c-0.2,0.6-1.9,1.4-2.7,1.2c-2.4-0.7-3.9-0.3-5.3,1.9c-1.6,2.4-3.5,4.1-2.4,7.8c0.6,2.2-1.7,5.2-2.8,8.1c-2.2-0.9-4.1-1.6-6.4-2.4
				c0.2,2.4,0.3,4.5,0.4,6.8c-2.1-0.2-3.9-0.4-5.8-0.6c-3.3-2.5-6.5-5.1-9.9-7.5c-2.1-1.6-2.8-3.1-0.8-5.3c0.1,0,0.2-0.1,0.3-0.1
				c6-1.7,6.9-3.5,4.6-9.6c-0.2-0.6-1-1.2-1.6-1.4c-2-0.7-4-1.3-6.1-2.5c2.2-0.5,4.4-1,7-1.6c0-0.6,0-1.4,0-2.1
				c-0.2-4.3,0.3-4.7,4.6-5.5c1.3-0.2,3-1,3.6-2c1.4-2.5,3-3,5.3-1.6c0.5,0.4,1.3,0.4,2.3,0.7c-0.1-2.9-0.2-5.5-0.4-8.4
				c2.1,0.2,4.1,0.3,6.2,0.5c0.2-3,1.9-4.2,4.7-4.3c0.6,0,1.8-1.5,1.7-2c-0.8-3.1,0.9-4.2,3.6-4.8c-0.5-1.6-1-2.9-1.5-4.3
				c2.5-1.6,4.8-3,7.9-2.3c2.3,0.5,3.6-0.9,3.8-3.3c0.4-3.7,2.2-6.8,5.3-8.6c3.8-2.2,5.3-5.1,5-9.4c-0.1-0.7,0.2-1.4,0.4-2.5
				c1.8,0.7,3.4,1.4,5.3,2.2c0-3.2,0-6.3,0-9.9c3.2,1.5,5.8,2.7,8.7,4c0.1-1.1,0.1-1.9,0.1-2.7c0.1-2.7,1.3-4.2,4-4.5
				c1.5-0.1,3.5,0.2,3.3-2.5c0-0.4,1.2-0.9,1.8-1.1c0.9-0.2,1.9-0.3,3.7-0.6c-3.8-5-2.7-9.2,1-13.2c0.6,0.4,1.3,0.8,1.9,1.3
				c4.1,2.9,5.3,2.7,8.1-1.4c3.2-4.5,3.2-9.2-0.1-14.3c3,0.4,5.5,0.6,8.2,0.9c-0.2-1.4-0.4-2.6-0.5-4.1c3.3-0.6,6.6-1.2,10.2-1.9
				c-1-2.4-1.9-4.8-2.9-7.3c1.8-0.4,3.6-0.9,5.4-1.3c0.1-1.2,0.1-2.4,0.2-3.8c1,0,2,0.2,2.8-0.1c1-0.4,1.8-1.1,2.7-1.7
				c1.2-0.7,2.4-1.9,3.5-1.9c2.1,0,4.1,0.8,6.2,1.2c2.4,0.5,4.1,1.7,5.2,4.2c0.5,1.2,1.9,2.6,3,2.7c5,0.4,7.8,4,10.9,7.1
				c1.9,1.9,4.1,3.7,5.6,6c0.9,1.2,0.8,3.3,1.2,5.2c1-0.1,2.2-0.2,3.8-0.5c-0.3,2.2-0.5,4.3-0.8,7c2.4-1.9,4.5-3.5,6.8-5.3
				c1,1.6,1.9,3,3,5c0.5-1.6,0.9-2.9,1.3-4.1c1.2-0.1,2.4-0.1,4-0.2c-1-2.3-1.9-4.4-2.8-6.4c0.9-0.8,2.1-1.4,2.7-2.4
				c1.5-2.2,2.7-4.1,5.8-2.7c0.7,0.3,1.9-0.8,2.9-1.4c1.8-1.1,3.6-2.2,5.5-3.5c-0.3-1.2-0.5-2.4-0.8-3.7c2.6-1.1,5.2-2,7.6-3.2
				c4.2-2,4.7-4,2.8-8.4c-0.5-1.2-1-2.4-1.5-3.7c2.2-1.9,4.2-0.7,6.2,0.2c3,1.5,3.6,1.1,4.1-2.2c0.1-0.6,0.1-1.2,0.2-1.9
				c0.2-5,0.3-5.1,5.2-6.1c-0.4-1.9-0.7-3.8-1.2-6.1c2.5,0.4,4.9,0.6,7.1,1.4c2.5,0.9,3.5-0.2,4.3-2.3c1.1-2.9,2.7-5.3,6.2-5.7
				c-0.4-1-0.7-1.8-1-2.7c0.2-0.2,0.3-0.6,0.5-0.7c3.2-1.9,6.2-4,9.6-5.8c3.2-1.6,3.8-4.3,3.4-7.7c2.1-0.2,4.1-0.3,6.6-0.5
				c-1-3-1.9-5.8-3.1-9c3.8,0.7,7.9,5.1,11-2c-4.6-4.1-9.6-8.6-14.7-13.1c0.3-0.4,0.5-0.9,0.8-1.4c22.1-8.3,44.6-16.6,67.7-25.1
				c-8.6,23.6-17,46.7-25.5,69.8c-4.7-4.5-9.2-8.9-13.9-13.5c-1.9,3.2-3.4,7-6,9.8c-2.9,3-6.9,4.7-11.3,3.1c-0.2,0-0.5,0.1-0.7,0.1
				C356.4,147.3,356.5,147.5,356.6,147.7z"/>
			<path class="st1" d="M339,303.9c2.6-2.4,1.9-5.9,1-8.1c-1.2-2.7-0.7-4.8,0-7c0.5-1.8,1.2-3.3-0.7-4.7c-0.4-0.3-0.6-1.6-0.4-2.2
				c1.2-3.7,0.8-6.8-2.8-9.5c2.6-2.1,5-4,7.6-6.1c-4.4-2.7-3.6-6.6-2.7-10.3c0.7-2.9,0.1-4.7-2.6-5.8c-0.5-0.2-1-0.7-1.7-1.2
				c1.3-1.4,2.4-2.9,3.7-4c2.3-1.9,2.4-4,1-6.5c-1.5-2.5-1.8-5,0.5-7.6c-1.6-1.3-3-2.5-4.6-3.7c1.8-5.5,7.1-10.9,0.7-16.6
				c1.4-1.8,2.7-3.4,3.9-5c-2.3-3.8-2.3-3.8-0.7-7.8c-1.2-0.9-2.5-1.8-4-2.9c0.2-1.1,0.6-2.3,0.8-3.5c0.4-2,1-3.2,3.4-2.6
				c1.8,0.5,2.4-0.5,2.5-2.4c0.1-1.2,1-2.4,1.8-3.4c0.8-0.9,2.1-1.2,3.1-2c4.5-3.3,9.8-5.5,11.9-11.5c0.9-2.5,3.1-4.6,4.7-6.8
				c1.9-2.6,4.3-4.3,7.9-3c-0.1-1-0.1-1.7-0.2-2.4c-0.8-4.8-0.8-4.8,4-5.2c0.7-0.1,1.3-0.9,1.9-1.2c1.5-0.6,3.2-1.5,4.6-1.2
				c0.8,0.2,1.6,2.5,1.6,3.8c0.4,8.7,1.2,17.6-3.2,25.8c-0.5,0.9-0.4,2-0.6,3c-0.6,2.2-0.1,3.5,2.1,4.6c3.9,1.9,3.9,2,1.9,5.8
				c-2.5,4.8-2.9,9.9-0.8,14.7c2.9,6.9,2.7,13-2.2,18.8c1.4,0.9,2.6,1.6,3.7,2.5c3.9,3.2,3.5,8.1-0.9,10.4c-1.5,0.7-2.2,1.6-2,3.3
				c0.1,0.4,0.1,0.8,0,1.2c-0.4,3.8-0.1,7.3,4.9,8c-1.2,2.9-4.7,5.4-0.3,8.4c-1.9,0.7-3.5,1.2-5.2,1.8c0.8,2,1.5,3.8,2.3,5.8
				c0.9,2.2,1.8,4.2-0.5,6.5c-1.8,1.9,0.1,10.3,2.2,11.9c0.5,0.4,1,0.7,1.8,1.3c-1.1,1.1-2.1,2-3.3,3.2c1.2,0.7,2.2,1.4,3.6,2.4
				c-1.6,1.4-3,2.6-4.6,4c1,1.9,1.9,3.7,2.8,5.5c-3.9,2.1-5.5,5.4-4.9,9.9c0.4,3.3-1.2,5.5-4.1,6.8c-1,0.5-2.1,0.9-3,1.5
				c-2.1,1.5-2.9,3.6-2.6,6.1c0.2,2.5,1.7,3.7,4.1,4.2c1.5,0.2,3,0.7,4.3,1.4c0.8,0.4,1.7,1.5,1.7,2.3c-0.3,7.6-0.7,15.2-1.2,22.8
				c-5.6-3.2-11.2-3-17.2-0.8c-3.1,1.2-6.7,0.9-10.1,1.2c-1-1.5-2-3-3.1-4.7c2.7-2.2,5-4.2,7.6-6.1c7.6-5.6,9.3-13.5,7.9-22.3
				c-1.3-8.9-5.8-15.6-14.9-17.9C347.6,306,343.3,305,339,303.9z"/>
			<path class="st1" d="M306.7,356.4c-3.9,0.6-7.7,2-11.8,0.5c-1.3-0.5-3.2,0.5-4.9,0.8c-0.2-1.6-0.5-3-0.6-4.6
				c-1.2-14-2.4-27.9-3.6-41.8c-0.2-3-1.3-5.6-4.3-7c0.3-6.3,0.7-12.6,0.8-18.9c0.1-2.2-0.7-4.5-0.8-6.7c-0.1-1.8,0-3.6,0.5-5.4
				c-1.8-2-1.9-4.1,0-6.5c0.5-0.6,0.1-2,0.1-3c0.1-2.9,0.1-5.8,0.2-8.7c0.1-2,0.4-4,0.5-6.4c3.3,0.1,4.4-2.7,5.7-5.4
				c1.9-4,4.4-7.3,8.3-9.9c3.6-2.4,6.1-6.3,9.3-9.1c4.9-4.3,10.2-8.3,15.2-12.6c1-0.9,1.6-2.3,2.5-3.5c1.3-1.7,2.5-3.5,4.3-5
				c0.1,4.2,2.1,8.4-0.9,12.2c-0.4,0.4-0.4,1.5-0.1,1.9c2.2,3.2,1.6,6.7,0.8,10.2c-1.5,6.8-2,13.4-0.7,20.5
				c1.3,6.6,1.1,13.6,1.1,20.4c0,2.7-1.2,5.3-1.9,8c-0.6,2.4-0.6,4.4,1.3,6.3c0.6,0.6,1,2,0.7,2.7c-3.2,6-2.1,12.2-1.5,18.5
				c-5.9,0.7-11.8,1.2-17.7,2c-3.2,0.4-6.4,1-9.5,1.8c-2.2,0.6-3,2.5-2.7,4.9c0.4,2.4,1.9,3.2,4.1,3.2c1.6,0,3.2-0.1,4.9,0
				c4.7,0.2,6.4,1.4,6.8,6.1c0.6,7.8,0.6,15.6,0.7,23.4c0,2.8-1.3,5.3-3.9,6.5C307.6,352.8,306.9,354.4,306.7,356.4z"/>
			<path class="st1" d="M222.4,305.9c0.2-0.8,0.4-1.6,0.5-2.4c0.4-2,2.1-4-0.2-5.9c-0.2-0.2-0.1-0.8-0.1-1.2
				c0.4-7.5,0.8-15,1.2-22.5c0.1-0.9,0.3-2.2-0.1-2.7c-2.9-2.9-1.6-5.3,0.8-7.8c-0.7-0.9-1.4-1.6-1.9-2.4c-0.4-0.6-0.8-1.7-0.6-1.9
				c3.3-3,0.7-6.3,0.4-9.4c-0.4-3.4-0.4-6.1,2.9-8.1c-1-0.8-1.8-1.5-2.8-2.3c3.4-4.5,6.7-9,10.5-14c1.4,1.4,2.7,2.7,4,4.1
				c2.2,2.4,4.5,4.9,6.6,7.4c3.3,3.8,6.9,7.6,9.8,11.7c4,5.5,8.6,10.2,14.4,13.4c1.9,1.1,2.3,2.2,1.4,4.2c-1.5,3.4-3,6.7,0.5,9.8
				c0.3,0.3,0.2,1.2,0.2,1.8c-0.2,4-0.3,8-0.6,12c-0.2,2.2-0.6,4.5-1,6.6c-0.1,0.7-0.2,1.4-0.2,2c0.3,2,0.7,4,1,6
				c-2.2,6.4-4.6,12.7-6.6,19.2c-3.5,11.3-6.7,22.7-12.8,33c-3.8-0.4-7.5-1-11.3-1c-2.1,0-4.3,1.2-6.4,1.9c-1.3-4.7-0.2-7,4.1-8.8
				c2.7-1.2,5.5-2.4,8.7-3.8c-2.1-1.7-3.5-3.3-5.2-4c-6.7-2.6-7.9-7.8-6.9-14.2c0.1-0.7,0.2-1.4,0.2-2.2c0.3-4.9,0.8-9.9,0.8-14.8
				c0-3.9-2.1-5.6-5.8-5.3C226.3,304.7,224.4,305.4,222.4,305.9z"/>
			<path d="M103.9,314.2c-1.9,2.1-1.3,3.7,0.8,5.3c3.3,2.4,6.6,5,9.9,7.5c-1.5,1.9-2.9,3.9-4.4,6c-2.7-1.5-5.2-3-7.8-4.3
				c-4.8-2.2-10.9,0.6-12.4,5.7c-1.5,4.7,0.9,8.1,6.1,8.7c6.6,0.7,12.8,2.5,18.3,6.4c1.7,2.9,3.5,5.6,5.2,8.5c0.4,0,0.7,0,1.2,0
				c1.5-6.1,2.9-12.2,4.4-18.3c5.5-9.7,11.5-19.1,19.8-26.6c5.6-5.1,12.1-8.4,19.7-9.2c2.2,0.9,4.4,1.9,7.4,3.1
				c-1.9,2-3.3,3.7-4.9,5.2c-1.2,1.1-2.5,1.9-3.9,2.8c-4.4,1.3-8.7,2.9-11.5,7.1c-1.6,1.3-3.6,2.4-4.6,4c-3.2,5.3-6.3,10.8-8.7,16.4
				c-2.1,4.7-3.1,9.9-4.6,14.8c-1.6,7.8-0.7,15.4,2.1,22.8c3.4,8.9,11,13.1,20.1,11c4.5-1,9-1.9,13.6-2.7c1.9-0.3,4.3,0,4.7,2.3
				c0.2,1.5-0.8,3.7-1.9,4.7c-2.2,1.9-4.7,3.8-7.4,4.3c-6.2,1.1-12.7,1.8-18.9,1.5c-11.6-0.5-20-8.1-23.3-20.4
				c-1.3-4.7-2.3-9.4-3.6-14.8c-4.9,4.2-9.9,7.4-13.6,12c-2.4,3-2.8,7.8-3.9,11.7c-0.7,2.5-1,5-1.8,7.4c-1,2.9-3.8,4.3-6.6,3.5
				c-0.6-0.2-1.3-0.9-1.6-1.6c-1.8-3.7-2.1-7.4-1.1-11.4c2-7.7,1.2-9.6-5.7-13.5c-0.8-0.4-1.8-0.7-2.3-1.4c-1.5-1.7-4.1-3.9-3.8-5.2
				c0.6-2.4,3-4.3,4.9-6.2c0.2-0.3,1.5,0.1,2.1,0.4c2.5,1.5,4.9,3.2,7.5,4.6c4.4,2.3,9.3,1.1,12.3-2.7c2.1-2.7,1.9-5.8-1-7.4
				c-2.8-1.4-6-2.7-9-2.7c-7.7,0-13.6-3.4-17.7-9.6c-1.3-2-1-6.2,0.1-8.7c2.7-6.6,6.8-12.4,11.9-17.4c0.9-0.9,1.4-2.2,1.9-3.4
				c0.7-1.7,1.1-3.5,1.8-5.3c1.2-3.2,3.6-5,6.4-4.5c3.1,0.6,3.5,3.4,4.1,5.8C104.1,311.7,103.9,313,103.9,314.2z"/>
			<path d="M306.7,356.4c0.2-2,0.8-3.7,2.9-4.6c2.6-1.2,4-3.7,3.9-6.5c0-7.8-0.1-15.6-0.7-23.4c-0.4-4.7-2.1-5.9-6.8-6.1
				c-1.6-0.1-3.2,0-4.9,0c-2.2,0-3.7-0.8-4.1-3.2c-0.4-2.4,0.4-4.3,2.7-4.9c3.1-0.9,6.3-1.4,9.5-1.8c5.9-0.8,11.8-1.4,17.7-2
				c3.9,0.1,7.9,0.1,11.8,0.1c4.3,1.1,8.6,2.1,12.9,3.2c9.2,2.3,13.5,9.1,14.9,17.9c1.3,8.7-0.3,16.7-7.9,22.3
				c-2.5,1.9-4.9,3.9-7.6,6.1c1.1,1.6,2.1,3.2,3.1,4.7c4.8,9.7,9.6,19.5,14.4,29.2c0.6,1.3,1.3,2.5,1.9,3.8c2.3,5.3,1.2,7.7-4.1,9.6
				c-3.8,1.4-5.3,0.8-7-3c-3.9-8.6-7.3-17.4-11.6-25.8c-2.4-4.8-5.9-9.1-9.4-13.2c-3.6-4.3-9-2.7-10.8,2.7
				c-1.7,5.3-1.2,10.8-0.4,16.3c0.5,4.1,1.3,8.1,1.8,12.2c0.1,0.8-0.7,1.8-1.2,2.6c-0.3,0.4-1,0.6-1.6,0.9c-5.9,2.7-9,1.2-9.6-5.3
				c-0.6-5.6-0.3-11.4-0.4-17c-0.1-2,0.1-3.9-0.1-5.9c-0.2-2.9-1.8-4.7-4.3-5.8C310,358.8,308.4,357.5,306.7,356.4z M341.4,334.9
				c1.8,1.4,3.6,3,5.6,4.2c2.2,1.4,4.1,0.8,5.8-1.4c5.6-7.4,2.7-17-6.1-19.7c-1.2-0.4-2.5-0.5-3.8-0.7c-2.9-2.7-6.5-3-10.2-2.9
				c-6,0.1-6,0.1-6.2,6.1c-0.1,2.4-0.3,4.8-0.1,7.1c0.4,3.5,1.2,7,1.8,10.6C333,336.9,337.2,335.9,341.4,334.9z"/>
			<path class="st1" d="M163.2,314.9c1.3-0.9,2.7-1.7,3.9-2.8c1.6-1.5,3-3.2,4.9-5.2c-3-1.2-5.2-2.2-7.4-3.1
				c-1.8-5.5,0.8-8.6,4.9-11.9c4-3.2,7.3-7.4,10.5-11.5c3.9-5,8-9.4,12.9-13.3c5-4,9-9.1,13.5-13.8c1.2-1.2,2.3-3,3.9-1.4
				c0.8,0.7,1.1,2.9,0.7,4c-1.2,3.4-0.7,6.6,0.2,10c0.6,2.1,0.8,4.5,0.8,6.7c0.1,3.3-0.1,6.6-0.4,9.9c-0.2,2-0.9,3.8-1.5,6.3
				c0.5,0.6,1.5,1.8,2.6,3.2c-3.3,2.7-2.9,5.7-1,9.2c0.9,1.6,0.6,4,0.6,6c-0.1,3.4-0.2,6.8-0.7,10.2c-0.2,1.3-1.4,2.4-2.2,3.7
				c-0.4-3.5-0.4-7-1.2-10.4c-0.7-3.4-3.6-4.8-7-4.4c-3.5,0.4-4.5,1.5-4.8,5.5c-0.2,3.2-0.2,6.4-0.3,9.6c-0.2,4.5-0.3,9.1-0.8,13.6
				c-0.8,6.6-3.2,8-9.2,6.1c-0.7-0.2-1.3-0.4-2.1-0.6c-4.1-1-8.4,1.6-9.2,5.4c-0.7,3.6,2.1,7.3,6.4,7.8c3.5,0.4,7,0.4,10.6,0.6
				c-4.2,2.2-8.6,4.3-13.5,2.2c-0.4-0.2-1.1-0.2-1.5,0.1c-5.2,3.5-9.2,0.5-13.5-2.4c3-5.5,2.2-11,0.4-16.8c-0.6-2-0.6-4.5-0.2-6.7
				C164.7,325.3,164.4,320,163.2,314.9z"/>
			<path d="M191.9,354.1c-3.5-0.2-7.1-0.1-10.6-0.6c-4.4-0.6-7.2-4.2-6.4-7.8c0.7-3.8,5.1-6.4,9.2-5.4c0.7,0.2,1.4,0.4,2.1,0.6
				c6.1,1.9,8.4,0.6,9.2-6.1c0.5-4.5,0.6-9.1,0.8-13.6c0.2-3.2,0.1-6.4,0.3-9.6c0.3-4,1.3-5.1,4.8-5.5c3.5-0.4,6.2,1.1,7,4.4
				c0.7,3.4,0.8,7,1.2,10.4c-0.2,1.7-0.4,3.4-0.7,5c0,3.8,0.1,7.6,0.1,11.4c1.3,2.3,3,4,5.6,3.8c2.8-0.2,3.9-2.8,4.5-5.2
				c0.7-2.7,1.3-5.5,1-8.2c-0.7-7.5,0.7-14.7,2.4-21.9c1.9-0.5,3.9-1.2,5.8-1.4c3.8-0.3,5.8,1.4,5.8,5.3c0,4.9-0.5,9.9-0.8,14.8
				c-0.1,0.7-0.1,1.4-0.2,2.2c-1.1,6.4,0.1,11.6,6.9,14.2c1.7,0.7,3,2.3,5.2,4c-3.2,1.4-6,2.5-8.7,3.8c-4.3,1.9-5.3,4.2-4.1,8.8
				c0.7,10.6,1.3,21.2,1.9,31.8c0.1,2.2,0.2,4.5,0,6.8c-0.2,3.2-2.1,5-5.3,5.2c-4.4,0.2-6.5-1-7.1-4.5c-0.4-2-0.2-4.1-0.2-6.1
				c-0.4-11.4-0.8-22.7-1.4-33.9c-0.1-2.8-0.2-6-3.8-7c-2.5-0.7-5.8,1.2-7.5,4.7c-1.1,2.2-1.9,4.9-1.9,7.3
				c-0.1,7.6,0.4,15.3,0.6,22.9c0,0.4,0.1,0.8,0.1,1.2c0,4.6-0.3,5-4.4,5.8c-3.5,0.7-6.7-0.6-7.2-4c-0.7-5-0.5-10.2-0.5-15.4
				c0-3.1,0.8-6.2,0.7-9.2c-0.1-2.6-1-5.2-1.8-7.6C194.3,354.8,192.8,354.6,191.9,354.1z"/>
			<path d="M250,356.6c6.1-10.2,9.3-21.6,12.8-33c2-6.5,4.4-12.8,6.6-19.2c4.1-0.1,8.1-0.1,12.1-0.1c3,1.3,4,3.9,4.3,7
				c1.2,14,2.4,27.9,3.6,41.8c0.1,1.6,0.4,3,0.6,4.6c0.6,10.2,1.3,20.4,1.8,30.5c0.1,2.9,0,5.8-0.6,8.6c-0.9,4.1-1.9,4.6-6,4
				c-1.2-0.2-2.4-0.4-3.3-0.6c-0.7-12.6-1.4-24.9-2.2-37.3c-0.4-6.6-1.8-7.9-8-8.3c-7.1-0.4-8.8,0.9-10.8,7.8
				c-1.5,5.2-3,10.4-4.7,15.6c-1.6,4.9-3.4,5.6-7.9,3.5c-0.6-0.3-1.4-1.3-1.3-1.9c0.4-4.6,0.9-9.2,1.5-13.7
				C248.8,362.9,249.4,359.7,250,356.6z M278.6,338.9c-0.2-0.1-0.4-0.2-0.6-0.4c-0.2-2.5-0.5-4.9-0.8-7.4c-0.3-2.6-1.5-3.2-3.6-1.8
				c-4.2,2.7-4.7,7.4-5.4,11.9c-0.2,1.4,0.9,3.7,2.1,4.2c1.5,0.6,4.1,0.6,5.2-0.4C277,343.5,277.6,341,278.6,338.9z"/>
			<path d="M381.5,357.6c0.4-7.6,0.8-15.2,1.2-22.8c0-0.7-0.9-1.9-1.7-2.3c-1.3-0.7-2.9-1.1-4.3-1.4c-2.4-0.4-3.8-1.6-4.1-4.2
				c-0.2-2.6,0.5-4.7,2.6-6.1c0.9-0.6,2-1,3-1.5c2.9-1.4,4.5-3.6,4.1-6.8c-0.6-4.5,0.9-7.8,4.9-9.9c1.9,0.2,3.8,0.5,5.7,0.6
				c2.9,0.2,3.9,1.7,3.5,4.6c-0.5,3.4-1,6.9-1.7,11.2c3.7,0.1,6.9,0.1,10.2,0.2c2.1,0.1,4.2-0.1,6.3,0.3c1.7,0.2,3.2,1,3.2,3.4
				s-1.2,3.8-3.3,4.2c-3.3,0.5-6.6,0.7-9.9,1.1c-2,0.2-4,0.5-6.6,0.8c-0.3,6.7-0.8,13.5-0.8,20.2c-0.2,11.6,0,23.1-0.2,34.8
				c-0.1,4.5-0.9,9-1.5,13.5c-0.3,2.9-1.9,4.1-4.7,4c-2.8,0-4.4-1-5.2-4c-1.9-7.1-1-14.1-0.8-21.2
				C381.5,370,381.5,363.8,381.5,357.6z"/>
			<path class="st1" d="M133.8,357.2c1.5-5,2.5-10.1,4.6-14.8c2.5-5.7,5.6-11.1,8.7-16.4c1-1.7,3-2.7,4.6-4
				c0.2,7.2,0.5,14.4,0.6,21.6c0.1,4.4,0,8.8,0,13.7C146.2,357.2,140,357.2,133.8,357.2z"/>
			<path class="st1" d="M125,339.6c-1.5,6.1-2.9,12.2-4.4,18.3c-0.4,0-0.7,0-1.2,0c-1.7-2.9-3.5-5.6-5.2-8.5
				C116.1,343.9,120.1,341.2,125,339.6z"/>
			<path class="st1" d="M208.8,337.4c0-3.8-0.1-7.6-0.1-11.4C210.7,329.8,212.4,333.6,208.8,337.4z"/>
			<path class="st1" d="M341.4,334.9c0.3-4.9-0.2-9.4-5.5-12c2.4-2,4.7-3.8,6.9-5.6c1.3,0.2,2.6,0.4,3.8,0.7
				c8.8,2.7,11.7,12.3,6.1,19.7c-1.6,2.2-3.6,2.7-5.8,1.4C345,337.9,343.3,336.3,341.4,334.9z"/>
		</g>
	</g>
</g>
</svg>
