<?xml version="1.0" encoding="utf-8"?>
<!-- Generator: Adobe Illustrator 27.9.0, SVG Export Plug-In . SVG Version: 6.00 Build 0)  -->
<svg version="1.1" id="Layer_1" xmlns="http://www.w3.org/2000/svg" xmlns:xlink="http://www.w3.org/1999/xlink" x="0px" y="0px"
	 viewBox="0 0 50 50" enable-background="new 0 0 50 50" xml:space="preserve">
<g id="Filled_1_">
	<path fill="none" stroke="#FFFFFF" stroke-width="3.3333" stroke-miterlimit="16.6667" d="M41.1,8.5C39.9,9,16.2,19.2,8.1,22.7
		c-0.5,0.2-1.4,0.5-1.4,1.5c0,0.8,0.6,1.2,1.3,1.5c1.8,0.7,8.4,3.4,8.4,3.4s2.3,7.2,2.8,8.7c0.5,1.6,0.9,1.6,0.9,1.6
		c0.1,0,0.2,0.1,0.3,0.1c0.3,0,0.6-0.2,0.6-0.2l6.1-5.3l7.2,6.8c0,0,0.7,0.8,1.5,0.8c1,0,1.7-1,1.8-1.6c0.2-0.9,5.7-29.5,5.7-29.5
		C43.7,8.3,42.2,8.1,41.1,8.5z"/>
	<path fill="#FFFFFF" d="M34.8,16.7c-0.3,0-0.6,0.2-0.8,0.4c-2.6,1.7-15.8,9.3-19.4,11.4c1,0.4,1.7,0.7,1.7,0.7s2.3,7.2,2.8,8.7
		c0.5,1.6,0.9,1.6,0.9,1.6c0.1,0,0.2,0.1,0.3,0.1c0.1,0,0.1,0,0.2,0l2.4-9.6c0,0,10.9-11.3,11.6-12c0.5-0.5,0.6-0.7,0.6-0.9
		C35.2,16.8,35.1,16.7,34.8,16.7z"/>
</g>
</svg>
