<?xml version="1.0" encoding="utf-8"?>
<!-- Generator: Adobe Illustrator 27.9.0, SVG Export Plug-In . SVG Version: 6.00 Build 0)  -->
<svg version="1.1" id="Layer_1" xmlns="http://www.w3.org/2000/svg" xmlns:xlink="http://www.w3.org/1999/xlink" x="0px" y="0px"
	 viewBox="0 0 42 42" enable-background="new 0 0 42 42" xml:space="preserve">
<path fill="#FFFFFF" d="M7,0C3.1,0,0,3.1,0,7v28c0,3.9,3.1,7,7,7h28c3.9,0,7-3.1,7-7V7c0-3.9-3.1-7-7-7H7z M7,2h28c2.8,0,5,2.2,5,5
	v28c0,2.8-2.2,5-5,5H7c-2.8,0-5-2.2-5-5V7C2,4.2,4.2,2,7,2z M9.1,9l9.2,13.1L9,33h2.5l7.9-9.3L26,33h7.9L23.8,18.6L32,9h-2.5l-6.8,8
	L17,9H9.1z M12.9,11H16l14.1,20H27L12.9,11z"/>
</svg>
